<svg xmlns="http://www.w3.org/2000/svg" viewBox="0 0 78.33 78.33"><defs><style>.cls-1{fill:#001a5a;}</style></defs><title>aluminio vidrio</title><g id="Capa_2" data-name="Capa 2"><g id="Capa_1-2" data-name="Capa 1"><path class="cls-1" d="M77,78.33H1.33L0,77v-.83a2.15,2.15,0,0,1,2.3-1.24c.88,0,1.77,0,2.65,0H6.81v-.87q0-11.65,0-23.31,0-24.25,0-48.52A2.16,2.16,0,0,1,8.13,0H70.2a2.26,2.26,0,0,1,1.36,2.39q0,11,0,22.06v33c0,5.53,0,11.06,0,16.59,0,.75.24.94,1,.91,1.21,0,2.43,0,3.65,0a2.11,2.11,0,0,1,2.21,1.24V77ZM40.92,40.9v34H68v-34Zm-30.63,0v34H37.43v-34ZM40.9,3.45v34H68v-34Zm-3.46,34v-34H10.29v34Z"/><path class="cls-1" d="M18.66,24.09c-.54-.46-1.16-.75-1.38-1.22a2,2,0,0,1,.08-1.61,9.17,9.17,0,0,1,1.54-1.71L30.73,7.71c.16-.15.32-.31.49-.45a1.72,1.72,0,0,1,2.39.13,1.66,1.66,0,0,1-.06,2.32c-.65.72-1.35,1.38-2,2.07-3.73,3.73-7.45,7.46-11.2,11.17A12,12,0,0,1,18.66,24.09Z"/><path class="cls-1" d="M24.06,8.4a7.91,7.91,0,0,1-.85,1.43Q20,13.15,16.66,16.41a1.71,1.71,0,0,1-2.52.11,1.63,1.63,0,0,1,.07-2.44c2.2-2.26,4.43-4.48,6.67-6.7a1.52,1.52,0,0,1,2-.35A7.09,7.09,0,0,1,24.06,8.4Z"/></g></g></svg>