<svg xmlns="http://www.w3.org/2000/svg" viewBox="0 0 16.56 28.39"><defs><style>.cls-1{fill:#ff0019;}</style></defs><title>celular</title><g id="Capa_2" data-name="Capa 2"><g id="Capa_1-2" data-name="Capa 1"><path class="cls-1" d="M16.56,2.37A2.37,2.37,0,0,0,14.19,0H2.37A2.37,2.37,0,0,0,0,2.37V26a2.37,2.37,0,0,0,2.37,2.37H14.19A2.37,2.37,0,0,0,16.56,26Zm-10,0h3.54a.59.59,0,0,1,.6.59.6.6,0,0,1-.6.59H6.51A.6.6,0,0,1,5.91,3,.59.59,0,0,1,6.51,2.37ZM8.28,26a1.18,1.18,0,1,1,1.18-1.18A1.18,1.18,0,0,1,8.28,26Zm5.91-3.55H2.37V5.89H14.19Z"/></g></g></svg>