<svg xmlns="http://www.w3.org/2000/svg" viewBox="0 0 150.44 58.35"><defs><style>.cls-1{fill:#001a5a;}</style></defs><title>cubiertas</title><g id="Capa_2" data-name="Capa 2"><g id="Capa_1-2" data-name="Capa 1"><path class="cls-1" d="M120,14c-5.89,11.23-11.54,22-17.2,32.78-1.59,3-3.25,6-4.85,9-1.17,2.19-3.11,2.63-5.38,2.63q-27.37,0-54.75,0c-10.91,0-21.83,0-32.74,0C3,58.36,1.3,57.89.39,55.93s-.14-3.43.92-5.18c2.68-4.44,5-9.08,7.47-13.66,6.07-11.44,12.16-22.86,18.1-34.36A4.18,4.18,0,0,1,31.22.13c24.47,0,49-.08,73.42-.13,4.77,0,9.55.06,14.32,0a5.53,5.53,0,0,1,5.45,3.38c8.26,15.77,16.63,31.48,24.92,47.24a8.17,8.17,0,0,1,1.11,3.81,4,4,0,0,1-3.54,3.82,4.14,4.14,0,0,1-4.65-2.39c-2.09-3.81-4.1-7.66-6.13-11.5l-14.69-27.8C121,15.82,120.61,15.11,120,14ZM49,3.1c-5.87,0-11.14.1-16.4-.06A3.39,3.39,0,0,0,29,5.24q-11,21-22.16,42A13.74,13.74,0,0,0,6.26,49C17.38,49,28.19,49,39,49a2.47,2.47,0,0,0,1.83-1c1.93-3.46,3.74-7,5.82-11H43c-3.15,0-3.5-.65-2-3.45,2.22-4.16,4.44-8.32,6.88-12.91H44.12c-3.44,0-3.88-.75-2.33-3.72C44.1,12.49,46.4,8.06,49,3.1ZM79.31,13.18c3.34,0,6.06-.09,8.78,0,2.06.08,3.87.06,4.67-2.37.13-.43,1.27-1,1.55-.81a3.53,3.53,0,0,1,1.12,1.73,3.68,3.68,0,0,1-.07,1.38c4.72,0,9.23,0,13.74,0a2.28,2.28,0,0,0,1.7-.75c1.65-2.94,3.18-5.95,5-9.37h-2.91c-18.66,0-37.32.12-56-.09-3.72,0-5.92.79-7.27,4.44-1.24,3.37-3.17,6.5-4.94,10,1.15.1,1.82.18,2.48.2,5.88.14,5.86.13,2.94,5.35-1.33,2.38-2.59,4.81-3.88,7.22l.54.63c1.59-.3,4,0,4.62-1C54.05,25.57,56.2,21,58.76,16.2c-2.82,0-5.18.12-7.52-.06-.78-.07-1.5-.89-2.25-1.37.73-.53,1.44-1.45,2.21-1.51,2.54-.19,5.11,0,7.65-.13A3.91,3.91,0,0,0,61,11.87c.95-.91,1-3.22,2.91-2.42.66.27.58,2.29.88,3.74a19.92,19.92,0,0,1,3.27,0c5.43.82,9.58-.4,11.27-6.33.17-.6,1.5-.87,2.29-1.29.11.89.55,1.89.28,2.64A42.79,42.79,0,0,1,79.31,13.18ZM47.69,53c-14.07,0-28.14,0-42.21,0a6.86,6.86,0,0,0-2.41,1c.77.41,1.55,1.2,2.32,1.2q43.62.09,87.23,0a4,4,0,0,0,2.93-1.75c4.57-8.35,9-16.8,13.41-25.22,3.07-5.8,6.1-11.61,9.23-17.37a3.32,3.32,0,0,1,2-1.62c.46-.07,1.19,1,1.65,1.65a21.58,21.58,0,0,1,1.38,2.44l21,39.78c.2.37.29.91.6,1.1a13.21,13.21,0,0,0,2.08.87,6.59,6.59,0,0,0,.35-2,6.45,6.45,0,0,0-.92-1.81Q134.18,28.35,122,5.45a14.35,14.35,0,0,0-2-2.39c-.7.81-1.42,1.61-2.11,2.43a3.89,3.89,0,0,0-.33.68C110,20.5,102.48,34.81,95,49.17A6.31,6.31,0,0,1,88.61,53C75,52.86,61.33,53,47.69,53ZM70.15,30.48c10.26,0,19.95,0,29.65,0,.6,0,1.53-.23,1.76-.65,2.41-4.35,4.69-8.77,7.24-13.59-5.27,0-10,0-14.74.05-.5,0-1.14.66-1.43,1.17-1.17,2.07-2.11,4.28-3.4,6.27-.53.82-1.72,1.22-2.6,1.82,0-1-.37-2.19,0-3.08.79-2,1.92-3.89,3.12-6.22-4,0-7.5,0-11,0a1.93,1.93,0,0,0-1.39.85C75,21.41,72.67,25.75,70.15,30.48ZM75.93,49c4.85,0,9.17-.07,13.48,0a2.84,2.84,0,0,0,2.94-1.86c2-4,4.19-8,6.27-12a12.52,12.52,0,0,0,.59-1.77c-4.8,0-9.3,0-13.79.06a2.7,2.7,0,0,0-1.94,1.22C81,39.25,78.63,43.85,75.93,49ZM54.67,30.51c4,0,7.29,0,10.6,0,.6,0,1.49-.25,1.72-.67,2.42-4.37,4.72-8.79,7.27-13.6-4.07,0-7.7,0-11.32,0a1.38,1.38,0,0,0-1,.57C59.56,21.2,57.25,25.61,54.67,30.51Zm26.05,2.93c-4.12,0-7.51,0-10.9,0-1.42,0-4.11,4.12-3.2,4.85,1.35,1.09.41,1.77,0,2.55C65.3,43.47,63.9,46.05,62.34,49c3.3,0,6.16,0,9,0a1.88,1.88,0,0,0,1.39-.79C75.36,43.45,77.9,38.69,80.72,33.44Zm-18,8.09c-5,0-9.53,0-14,0a1.93,1.93,0,0,0-1.42.82c-1.17,2-2.21,4.12-3.51,6.6,5,0,9.58,0,14.14,0a1.94,1.94,0,0,0,1.38-.88C60.46,46.09,61.46,44.05,62.76,41.53ZM50.85,38.47c2.65,0,5,0,7.41,0,4.82.1,4.82.12,6.56-5H57.4C52.78,33.44,52.78,33.43,50.85,38.47Z"/></g></g></svg>