<svg xmlns="http://www.w3.org/2000/svg" viewBox="0 0 103.12 78.51"><defs><style>.cls-1{fill:#001a5a;}</style></defs><title>GARAJE</title><g id="Capa_2" data-name="Capa 2"><g id="Capa_1-2" data-name="Capa 1"><path class="cls-1" d="M3.88,78.29v-70C3.59,8.12,3.5,8,3.39,8-.71,7.87.09,7.9,0,4.47,0,3,0,1.58,0,0h103.1c0,2.31,0,4.6-.06,6.87,0,.39-.68,1-1.13,1.08a11.63,11.63,0,0,1-2.54,0V78.29H93.89V8.1H9.35V78.29Z"/><path class="cls-1" d="M25.55,50.84c.71-1.62,1.58-3.46,2.33-5.34,1.31-3.25,2.55-6.53,3.83-9.79a4.56,4.56,0,0,1,4.61-3.16l30.53,0a4.73,4.73,0,0,1,4.69,3.34c1.84,4.67,3.72,9.31,5.6,14,.15.38.36.74.54,1.1.18-.07.35-.08.37-.13,1.37-4.36,3.79-5.57,8.17-4.05a3,3,0,0,1,2.11,3.4A2.87,2.87,0,0,1,85.48,53c-1.57.13-3.15,0-4.73.06-2,0-2.07.32-2,2.22.2,6.78.28,13.56.41,20.34a2.19,2.19,0,0,1,0,.36c-.36,2.16-2,2.79-6.35,2.5A2.68,2.68,0,0,1,70,75.52c-.06-1.57-.09-3.15,0-4.72.08-1.29-.41-1.66-1.66-1.65-9.15,0-18.3,0-27.44,0-1.94,0-3.89.08-5.82,0-1.38-.07-2,.33-1.9,1.82a39.62,39.62,0,0,1,0,4.36c-.08,2-1,3-3.06,3.06-5,.12-6.35.43-6.15-5.79.17-5.26,0-10.54.2-15.8C24.36,53,24.58,53,20.76,53c-1,0-2.07.07-3.09,0a3.09,3.09,0,0,1-3-2.92,2.94,2.94,0,0,1,2.45-3.31c1.82-.18,3.87-.4,5.44.28C23.86,47.57,24.53,49.43,25.55,50.84Zm26.09,1.77c5.94,0,11.88,0,17.82,0,2.92,0,4.15-1.79,3.22-4.58-1.07-3.2-2.18-6.4-3.3-9.58-.76-2.17-1.62-2.8-3.89-2.8q-13.9,0-27.82,0c-2.35,0-3.17.63-4,2.93-1.05,3-2.09,6.07-3.15,9.09-1.12,3.19.08,4.94,3.45,4.94C39.88,52.62,45.76,52.61,51.64,52.61ZM34.73,63.93h2.18c4.47,0,4,.53,4.06-4.32,0-1.26-.53-1.75-1.74-1.73-2.12,0-4.24,0-6.36,0-4.43,0-4.09-.71-4.06,4.49a1.36,1.36,0,0,0,1.56,1.55C31.83,63.91,33.28,63.93,34.73,63.93Zm33.35,0h2.18c4.31,0,4.28,0,4.08-4.32,0-1.23-.53-1.75-1.76-1.73-2.11,0-4.23,0-6.35,0-4.27,0-4.24,0-4.05,4.31,0,1.21.49,1.78,1.73,1.74C65.3,63.9,66.69,63.93,68.08,63.93Z"/><path class="cls-1" d="M89.48,22.67H13.67V20H87.42C89.82,20,89.82,20,89.48,22.67Z"/><path class="cls-1" d="M89.46,10.39c.36,2.57.36,2.58-2,2.58l-71.95,0c-1,0-2.15.31-2.07-1.41.05-1,.3-1.4,1.36-1.39q11.9.07,23.79.08c6,0,11.95,0,17.92,0q16.25,0,32.5,0A1.76,1.76,0,0,1,89.46,10.39Z"/><path class="cls-1" d="M13.58,17.71V15.27h76v2.44Z"/><path class="cls-1" d="M13.59,27.52V25H89.51v2.51Z"/></g></g></svg>