<svg xmlns="http://www.w3.org/2000/svg" viewBox="0 0 19.9 20"><defs><style>.cls-1{fill:#fff;}</style></defs><title>ico whatsapp</title><g id="Capa_2" data-name="Capa 2"><g id="Capa_1-2" data-name="Capa 1"><path class="cls-1" d="M0,20l1.41-5.14A9.9,9.9,0,0,1,10,0a9.82,9.82,0,0,1,7,2.91,9.77,9.77,0,0,1,2.9,7,9.91,9.91,0,0,1-14.65,8.7Zm5.5-3.17A8.22,8.22,0,1,0,3.21,14.6l-.83,3ZM15,12.27c-.06-.1-.23-.16-.48-.29s-1.46-.72-1.69-.8-.39-.13-.56.12-.64.81-.78,1-.29.19-.54.07a7,7,0,0,1-2-1.23A7.57,7.57,0,0,1,7.57,9.39c-.14-.25,0-.38.11-.5s.25-.29.37-.44A1.33,1.33,0,0,0,8.3,8a.46.46,0,0,0,0-.43c-.06-.13-.56-1.35-.76-1.84S7.11,5.35,7,5.34H6.49a.88.88,0,0,0-.66.31A2.78,2.78,0,0,0,5,7.71a4.82,4.82,0,0,0,1,2.56A11,11,0,0,0,10.2,14a14.3,14.3,0,0,0,1.41.52,3.43,3.43,0,0,0,1.56.1,2.52,2.52,0,0,0,1.67-1.18A2.08,2.08,0,0,0,15,12.27Z"/></g></g></svg>