<svg xmlns="http://www.w3.org/2000/svg" viewBox="0 0 170.17 24.45"><defs><style>.cls-1{fill:#fff;}</style></defs><title>LOGO2</title><g id="Capa_2" data-name="Capa 2"><g id="Capa_1-2" data-name="Capa 1"><path class="cls-1" d="M87.61,12.13h-9V1.86h0a.43.43,0,0,0,0-.11,1.75,1.75,0,0,0-3.5,0s0,.07,0,.11h0V13.65h0a1.79,1.79,0,0,0,0,.23,1.74,1.74,0,0,0,1.74,1.75H87.61a1.75,1.75,0,0,0,0-3.5"/><path class="cls-1" d="M17.81,0a1.73,1.73,0,0,0-1.25.53h0L9.77,7.3,3,.52H3A1.72,1.72,0,0,0,1.75,0,1.75,1.75,0,0,0,0,1.75s0,0,0,.07V13.54H0s0,.08,0,.11a1.75,1.75,0,0,0,3.5,0s0-.07,0-.11h0V6l5,5h0a1.73,1.73,0,0,0,2.56,0l5-5v7.6h0s0,.08,0,.11a1.75,1.75,0,1,0,3.5,0,.52.52,0,0,0,0-.11h0V1.75A1.75,1.75,0,0,0,17.81,0"/><path class="cls-1" d="M36.55,0H22.89a1.75,1.75,0,0,0,0,3.5H36.55a1.75,1.75,0,0,0,0-3.5"/><path class="cls-1" d="M36.43,9.23h.12a1.75,1.75,0,0,0,0-3.5l-.12,0v0H22.89a1.75,1.75,0,0,0-1.74,1.75v6.4a1.74,1.74,0,0,0,1.74,1.75H36.55a1.75,1.75,0,1,0,0-3.49H24.64V9.23Z"/><path class="cls-1" d="M56.72,1.75A1.75,1.75,0,0,0,55,0H41.32a1.75,1.75,0,0,0,0,3.5h5v10h0s0,.07,0,.11a1.75,1.75,0,0,0,3.5,0s0-.07,0-.11h0v-10H55a1.75,1.75,0,0,0,1.75-1.75"/><path class="cls-1" d="M72.49,13,65.92,1h0a1.74,1.74,0,0,0-3.27.84,1.79,1.79,0,0,0,.21.83h0l3,5.41H59.48A1.75,1.75,0,0,0,58,9h0l-1.42,2.6-.71,1.31a1.75,1.75,0,0,0,1.44,2.73,1.72,1.72,0,0,0,1.53-.92h0l1.71-3.13h7.17l1.71,3.13h0a1.75,1.75,0,0,0,3.28-.84,1.7,1.7,0,0,0-.23-.83Z"/><path class="cls-1" d="M128.78,12.56h0l0,0,0,0-5.59-4.87,5.11-4.38,0,0,0,0h0A1.74,1.74,0,0,0,126,.56h0l0,0,0,0-5.49,4.71L115.05.58h0l0-.06a1.75,1.75,0,0,0-2.3,2.64l.06,0h0l5,4.4-5.6,4.79h0l-.07,0a1.75,1.75,0,0,0,2.28,2.66l0-.06h0l6-5.12,6,5.21,0,0,0,0h0a1.75,1.75,0,0,0,2.3-2.63Z"/><path class="cls-1" d="M108,0a1.75,1.75,0,0,0-1.75,1.75s0,.07,0,.11h0v8.25a1.75,1.75,0,0,1-1.75,1.75H96.35a1.76,1.76,0,0,1-1.75-1.75V9.19h0V1.86h0s0-.07,0-.11a1.75,1.75,0,0,0-3.5,0s0,.07,0,.11h0V5.52h0v7A2.87,2.87,0,0,0,94,15.35h12.87a2.87,2.87,0,0,0,2.86-2.87V1.86h0a.43.43,0,0,0,0-.11A1.75,1.75,0,0,0,108,0"/><path class="cls-1" d="M146.8.17H133.93A2.86,2.86,0,0,0,131.07,3v9.45a2.87,2.87,0,0,0,2.86,2.87H146.8a2.87,2.87,0,0,0,2.86-2.87V3A2.86,2.86,0,0,0,146.8.17m-.63,5.35v4.59a1.75,1.75,0,0,1-1.75,1.75h-8.11a1.76,1.76,0,0,1-1.75-1.75V5.41a1.75,1.75,0,0,1,1.75-1.75h8.11a1.75,1.75,0,0,1,1.75,1.75Z"/><path class="cls-1" d="M169.61,9.74A1.75,1.75,0,0,0,167.93,8a4.15,4.15,0,0,0-2-7.81H154a1.75,1.75,0,1,0,0,3.49h10.09a1.4,1.4,0,1,1,0,2.79H154a1.75,1.75,0,0,0-1.75,1.75V14a1.75,1.75,0,0,0,3.5,0V9.94h10.35V14a1.75,1.75,0,1,0,3.49,0V9.74"/><path class="cls-1" d="M.78,24.36V18.6H3.14a4.65,4.65,0,0,1,1.23.11,1.59,1.59,0,0,1,.86.55,1.52,1.52,0,0,1,.32,1A1.64,1.64,0,0,1,5,21.52a2.64,2.64,0,0,1-1.82.5H1.61v2.34Zm.83-3H3.23a2,2,0,0,0,1.12-.26.94.94,0,0,0,.35-.79,1,1,0,0,0-.17-.59.94.94,0,0,0-.42-.33,3.06,3.06,0,0,0-.9-.09H1.61Z"/><path class="cls-1" d="M14.51,24.36v-.61a1.74,1.74,0,0,1-.62.53,1.92,1.92,0,0,1-.81.17,1.77,1.77,0,0,1-.92-.22,1.08,1.08,0,0,1-.51-.55,2.74,2.74,0,0,1-.12-.91V20.19h.76V22.5a2.63,2.63,0,0,0,.09.86.64.64,0,0,0,.32.35,1,1,0,0,0,.52.13,1.25,1.25,0,0,0,.91-.34,1.5,1.5,0,0,0,.3-1.08V20.19h.77v4.17Z"/><path class="cls-1" d="M24.54,23l.79.08a1.73,1.73,0,0,1-.71,1,2.26,2.26,0,0,1-1.28.34,2.17,2.17,0,0,1-1.56-.55,2.06,2.06,0,0,1-.6-1.59,2.17,2.17,0,0,1,.6-1.65,2.13,2.13,0,0,1,1.53-.57,2,2,0,0,1,1.46.56,2.09,2.09,0,0,1,.59,1.61v.19H22a1.55,1.55,0,0,0,.43,1.06,1.33,1.33,0,0,0,.94.36,1.2,1.2,0,0,0,1.2-.85M22,21.87h2.53a1.37,1.37,0,0,0-.31-.81,1.23,1.23,0,0,0-.94-.39,1.27,1.27,0,0,0-.88.33,1.19,1.19,0,0,0-.4.87"/><path class="cls-1" d="M31.35,24.36V20.19H32v.63a1.84,1.84,0,0,1,.49-.59.91.91,0,0,1,.49-.14,1.62,1.62,0,0,1,.79.23l-.26.65a1.21,1.21,0,0,0-.56-.15.81.81,0,0,0-.45.13.71.71,0,0,0-.28.36,2.47,2.47,0,0,0-.15.86v2.19Z"/><path class="cls-1" d="M41,23.73l.11.62a3.07,3.07,0,0,1-.57.06,1.48,1.48,0,0,1-.65-.12.76.76,0,0,1-.34-.32,2.49,2.49,0,0,1-.09-.83v-2.4H38.9v-.55h.56v-1l.77-.42v1.46H41v.55h-.77v2.44a.8.8,0,0,0,.07.43c.06.1.18.14.37.14a2.19,2.19,0,0,0,.33,0"/><path class="cls-1" d="M49.72,23.84a2.84,2.84,0,0,1-.8.46,2.57,2.57,0,0,1-.87.15,1.78,1.78,0,0,1-1.13-.32,1,1,0,0,1-.42-.87,1.1,1.1,0,0,1,.2-.64,1.29,1.29,0,0,1,.54-.43,3.39,3.39,0,0,1,1-.24,7.1,7.1,0,0,0,1.37-.24v-.19a.79.79,0,0,0-.2-.6,1.36,1.36,0,0,0-.88-.25,1.51,1.51,0,0,0-.8.17,1,1,0,0,0-.39.63l-.76-.09a1.53,1.53,0,0,1,.65-1,3.31,3.31,0,0,1,2.53-.11,1,1,0,0,1,.51.5,2.82,2.82,0,0,1,.11.88v.94a9.63,9.63,0,0,0,0,1.25,1.61,1.61,0,0,0,.19.5h-.8a1.38,1.38,0,0,1-.15-.52m-.07-1.58a5.44,5.44,0,0,1-1.25.27,3.22,3.22,0,0,0-.68.14.85.85,0,0,0-.29.23.51.51,0,0,0-.11.34.57.57,0,0,0,.24.48,1.14,1.14,0,0,0,.68.18,1.71,1.71,0,0,0,.75-.16,1.18,1.18,0,0,0,.5-.43,1.53,1.53,0,0,0,.16-.79Z"/><path class="cls-1" d="M56.37,23.11l.77-.11a1,1,0,0,0,.36.66,1.4,1.4,0,0,0,.8.21,1.34,1.34,0,0,0,.78-.19.55.55,0,0,0,.27-.47.42.42,0,0,0-.24-.38,2.86,2.86,0,0,0-.78-.24,7.82,7.82,0,0,1-1.19-.35,1.15,1.15,0,0,1-.47-.39,1,1,0,0,1-.17-.56,1.05,1.05,0,0,1,.45-.87,2.1,2.1,0,0,1,1.26-.33,2.72,2.72,0,0,1,.89.14,1.35,1.35,0,0,1,.58.37,1.26,1.26,0,0,1,.28.66l-.75.1c-.07-.46-.4-.69-1-.69a1.5,1.5,0,0,0-.75.15.45.45,0,0,0-.24.39.4.4,0,0,0,.24.36,4.57,4.57,0,0,0,.83.25,8.19,8.19,0,0,1,1.23.37,1.07,1.07,0,0,1,.44.37,1,1,0,0,1,.15.55,1.15,1.15,0,0,1-.5,1,2.23,2.23,0,0,1-1.37.37c-1.09,0-1.72-.45-1.89-1.34"/><path class="cls-1" d="M76.5,23.84a2.71,2.71,0,0,1-.8.46,2.57,2.57,0,0,1-.87.15,1.75,1.75,0,0,1-1.12-.32,1,1,0,0,1-.43-.87,1.1,1.1,0,0,1,.2-.64,1.29,1.29,0,0,1,.54-.43,3.39,3.39,0,0,1,1-.24,7.39,7.39,0,0,0,1.38-.24v-.19a.79.79,0,0,0-.2-.6,1.36,1.36,0,0,0-.88-.25,1.54,1.54,0,0,0-.8.17,1,1,0,0,0-.39.63l-.76-.09a1.5,1.5,0,0,1,.66-1,2.57,2.57,0,0,1,1.4-.31,2.61,2.61,0,0,1,1.12.2,1,1,0,0,1,.51.5,2.55,2.55,0,0,1,.11.88v.94a9.63,9.63,0,0,0,.05,1.25,1.42,1.42,0,0,0,.2.5h-.8a1.38,1.38,0,0,1-.16-.52m-.06-1.58a5.54,5.54,0,0,1-1.26.27,3,3,0,0,0-.67.14.8.8,0,0,0-.3.23.59.59,0,0,0,.13.82,1.14,1.14,0,0,0,.68.18,1.68,1.68,0,0,0,.75-.16,1.18,1.18,0,0,0,.5-.43,1.52,1.52,0,0,0,.17-.79Z"/><path class="cls-1" d="M86.42,24.36v-.61a1.86,1.86,0,0,1-.63.53,1.92,1.92,0,0,1-.81.17,1.79,1.79,0,0,1-.92-.22,1,1,0,0,1-.5-.55,2.47,2.47,0,0,1-.13-.91V20.19h.76V22.5a2.63,2.63,0,0,0,.09.86.68.68,0,0,0,.32.35,1,1,0,0,0,.52.13A1.25,1.25,0,0,0,86,23.5a1.5,1.5,0,0,0,.3-1.08V20.19h.77v4.17Z"/><path class="cls-1" d="M95.06,23.73l.1.62a3.07,3.07,0,0,1-.57.06,1.48,1.48,0,0,1-.65-.12.69.69,0,0,1-.33-.32,2.49,2.49,0,0,1-.09-.83v-2.4H93v-.55h.57v-1l.76-.42v1.46h.78v.55h-.78v2.44a.8.8,0,0,0,.07.43c.06.1.19.14.37.14a2.31,2.31,0,0,0,.34,0"/><path class="cls-1" d="M100.53,22.27a2.11,2.11,0,0,1,.6-1.63,2.36,2.36,0,0,1,3,0,2,2,0,0,1,.61,1.59,2.14,2.14,0,0,1-.6,1.67,2.12,2.12,0,0,1-1.52.55,2.17,2.17,0,0,1-1.52-.55,2.11,2.11,0,0,1-.6-1.63m.78,0a1.68,1.68,0,0,0,.39,1.21,1.33,1.33,0,0,0,1,.39,1.24,1.24,0,0,0,.93-.4,1.65,1.65,0,0,0,.39-1.2,1.63,1.63,0,0,0-.39-1.2,1.3,1.3,0,0,0-1-.4,1.24,1.24,0,0,0-.93.4,1.63,1.63,0,0,0-.39,1.2"/><path class="cls-1" d="M110.72,24.36V20.19h.69v.58a1.43,1.43,0,0,1,.59-.5,1.72,1.72,0,0,1,.78-.18,1.57,1.57,0,0,1,.81.19,1,1,0,0,1,.47.54,1.88,1.88,0,0,1,.62-.55,1.72,1.72,0,0,1,.78-.18,1.5,1.5,0,0,1,1,.33,1.38,1.38,0,0,1,.38,1.07v2.87h-.77V21.73a1.68,1.68,0,0,0-.08-.64.65.65,0,0,0-.28-.29.92.92,0,0,0-.44-.1,1.13,1.13,0,0,0-.81.3,1.25,1.25,0,0,0-.31.93v2.43h-.76V21.64a1,1,0,0,0-.22-.73.78.78,0,0,0-.58-.21,1.11,1.11,0,0,0-.83.32,1.72,1.72,0,0,0-.3,1.17v2.17Z"/><path class="cls-1" d="M126,23.84a2.71,2.71,0,0,1-.8.46,2.57,2.57,0,0,1-.87.15,1.75,1.75,0,0,1-1.12-.32,1,1,0,0,1-.43-.87,1.1,1.1,0,0,1,.2-.64,1.29,1.29,0,0,1,.54-.43,3.39,3.39,0,0,1,1-.24,8.14,8.14,0,0,0,1.38-.24v-.19a.79.79,0,0,0-.2-.6,1.34,1.34,0,0,0-.88-.25,1.54,1.54,0,0,0-.8.17,1,1,0,0,0-.39.63l-.76-.09a1.5,1.5,0,0,1,.66-1,2.57,2.57,0,0,1,1.4-.31,2.61,2.61,0,0,1,1.12.2,1.05,1.05,0,0,1,.52.5,2.82,2.82,0,0,1,.1.88v.94a9.63,9.63,0,0,0,0,1.25,1.42,1.42,0,0,0,.2.5h-.8a1.38,1.38,0,0,1-.16-.52m-.06-1.58a5.54,5.54,0,0,1-1.26.27,3,3,0,0,0-.67.14.71.71,0,0,0-.3.23.59.59,0,0,0,.13.82,1.14,1.14,0,0,0,.68.18,1.83,1.83,0,0,0,.75-.16,1.18,1.18,0,0,0,.5-.43,1.52,1.52,0,0,0,.17-.79Zm-1.63-2.59.57-1.1h1l-.93,1.1Z"/><path class="cls-1" d="M134.65,23.73l.1.62a3.07,3.07,0,0,1-.57.06,1.51,1.51,0,0,1-.65-.12.69.69,0,0,1-.33-.32,2.49,2.49,0,0,1-.09-.83v-2.4h-.57v-.55h.57v-1l.76-.42v1.46h.78v.55h-.78v2.44a.8.8,0,0,0,.07.43c.06.1.19.14.37.14a2.31,2.31,0,0,0,.34,0"/><path class="cls-1" d="M140.41,18.6h.76v.81h-.76Zm0,1.59h.76v4.17h-.76Z"/><path class="cls-1" d="M150.36,22.83l.75.09a1.73,1.73,0,0,1-.65,1.14,2.05,2.05,0,0,1-1.26.39,2,2,0,0,1-1.46-.55,2.14,2.14,0,0,1-.58-1.63,2.18,2.18,0,0,1,.58-1.64,2.12,2.12,0,0,1,1.49-.54,2.06,2.06,0,0,1,1.19.33,1.5,1.5,0,0,1,.61,1l-.74.1a1.11,1.11,0,0,0-.38-.63,1,1,0,0,0-.65-.21,1.27,1.27,0,0,0-.94.38,1.67,1.67,0,0,0-.37,1.21,1.81,1.81,0,0,0,.35,1.23,1.19,1.19,0,0,0,.92.38,1.11,1.11,0,0,0,.74-.25,1.22,1.22,0,0,0,.4-.79"/><path class="cls-1" d="M159.75,23.84a2.59,2.59,0,0,1-.8.46,2.51,2.51,0,0,1-.86.15,1.78,1.78,0,0,1-1.13-.32,1,1,0,0,1-.42-.87,1.1,1.1,0,0,1,.19-.64,1.39,1.39,0,0,1,.55-.43,3.25,3.25,0,0,1,1-.24,7.25,7.25,0,0,0,1.37-.24v-.19a.75.75,0,0,0-.21-.6,1.34,1.34,0,0,0-.88-.25,1.54,1.54,0,0,0-.8.17,1,1,0,0,0-.39.63l-.75-.09a1.46,1.46,0,0,1,.65-1,3.31,3.31,0,0,1,2.53-.11,1,1,0,0,1,.51.5,2.87,2.87,0,0,1,.1.88v.94a9.63,9.63,0,0,0,0,1.25,1.64,1.64,0,0,0,.2.5h-.8a1.59,1.59,0,0,1-.16-.52m-.06-1.58a5.56,5.56,0,0,1-1.25.27,3.07,3.07,0,0,0-.68.14.8.8,0,0,0-.3.23.58.58,0,0,0-.11.34.56.56,0,0,0,.25.48,1.11,1.11,0,0,0,.67.18,1.65,1.65,0,0,0,.75-.16,1.13,1.13,0,0,0,.5-.43,1.52,1.52,0,0,0,.17-.79Z"/><path class="cls-1" d="M166.41,23.11l.76-.11a1,1,0,0,0,.37.66,1.38,1.38,0,0,0,.8.21,1.31,1.31,0,0,0,.77-.19.55.55,0,0,0,.27-.47.43.43,0,0,0-.23-.38,3,3,0,0,0-.78-.24,7.69,7.69,0,0,1-1.2-.35,1.22,1.22,0,0,1-.47-.39,1,1,0,0,1-.16-.56,1.05,1.05,0,0,1,.45-.87,2.09,2.09,0,0,1,1.25-.33,2.68,2.68,0,0,1,.89.14,1.29,1.29,0,0,1,.58.37,1.35,1.35,0,0,1,.29.66l-.75.1q-.1-.69-1-.69a1.44,1.44,0,0,0-.74.15.46.46,0,0,0-.25.39.4.4,0,0,0,.24.36,4.57,4.57,0,0,0,.83.25,8.46,8.46,0,0,1,1.24.37,1,1,0,0,1,.43.37.92.92,0,0,1,.16.55,1.15,1.15,0,0,1-.5,1,2.28,2.28,0,0,1-1.38.37c-1.08,0-1.71-.45-1.88-1.34"/></g></g></svg>