<svg xmlns="http://www.w3.org/2000/svg" viewBox="0 0 18.18 25.07"><defs><style>.cls-1{fill:#ff0019;}</style></defs><title>ubivcacion</title><g id="Capa_2" data-name="Capa 2"><g id="Capa_1-2" data-name="Capa 1"><path class="cls-1" d="M9.77,25.07H8.39a2.75,2.75,0,0,1-1.26-1.13C5.23,20.61,3.3,17.3,1.39,14A9.83,9.83,0,0,1,0,9.61,8.64,8.64,0,0,1,.91,5.14,8.83,8.83,0,0,1,6.73.33C7.29.17,7.88.11,8.46,0H9.71l.15.05A8.72,8.72,0,0,1,14.8,2,8.83,8.83,0,0,1,18,7.46,9.3,9.3,0,0,1,16.8,14q-2.6,4.52-5.21,9C11.12,23.78,10.76,24.7,9.77,25.07ZM9.09,11.76A3.31,3.31,0,1,0,5.78,8.45,3.3,3.3,0,0,0,9.09,11.76Z"/></g></g></svg>